<svg width="81" height="33" viewBox="0 0 81 33" fill="none" xmlns="http://www.w3.org/2000/svg">
<path fill-rule="evenodd" clip-rule="evenodd" d="M4.662 32.147C3.57 31.797 2.632 31.356 1.848 30.824L2.016 32.294H0.251999L0 25.07H1.302C1.358 26.218 1.673 27.24 2.247 28.136C2.821 29.032 3.57699 29.739 4.515 30.257C5.453 30.775 6.454 31.034 7.51801 31.034C8.72201 31.034 9.79299 30.747 10.731 30.173C11.669 29.599 12.138 28.78 12.138 27.716C12.138 26.932 11.907 26.274 11.445 25.742C10.983 25.21 10.409 24.769 9.723 24.419C9.037 24.069 8.07801 23.656 6.846 23.18C5.36199 22.62 4.172 22.095 3.276 21.605C2.38 21.115 1.61001 20.45 0.966003 19.61C0.322 18.77 0 17.706 0 16.418C0 15.494 0.224003 14.57 0.672005 13.646C1.12001 12.722 1.876 11.938 2.94 11.294C4.00401 10.65 5.41799 10.328 7.182 10.328C8.05 10.328 8.939 10.468 9.84901 10.748C10.759 11.028 11.606 11.49 12.39 12.134L12.306 10.538H14.07V17.888H12.726C12.642 16.264 12.145 14.857 11.235 13.667C10.325 12.477 9.04401 11.882 7.392 11.882C6.13199 11.882 5.131 12.197 4.389 12.827C3.647 13.457 3.276 14.206 3.276 15.074C3.276 15.886 3.521 16.572 4.011 17.132C4.501 17.692 5.11 18.168 5.83801 18.56C6.56601 18.952 7.54599 19.386 8.778 19.862C10.234 20.45 11.41 20.996 12.306 21.5C13.202 22.004 13.965 22.669 14.595 23.495C15.225 24.321 15.54 25.322 15.54 26.498C15.54 27.842 15.197 28.976 14.511 29.9C13.825 30.824 12.929 31.517 11.823 31.979C10.717 32.441 9.53401 32.672 8.274 32.672C6.958 32.672 5.75401 32.497 4.662 32.147ZM22.545 31.307C20.991 30.397 19.766 29.095 18.87 27.401C17.974 25.707 17.526 23.754 17.526 21.542C17.526 19.582 17.974 17.741 18.87 16.019C19.766 14.297 21.019 12.918 22.629 11.882C24.239 10.846 26.066 10.328 28.11 10.328C29.706 10.328 31.148 10.678 32.436 11.378C33.724 12.078 34.746 13.121 35.502 14.507C36.258 15.893 36.636 17.594 36.636 19.61L21.852 19.862C21.824 23.222 22.377 25.84 23.511 27.716C24.645 29.592 26.402 30.53 28.782 30.53C30.07 30.53 31.393 30.194 32.751 29.522C34.109 28.85 35.152 28.024 35.88 27.044L36.888 27.884C35.824 29.508 34.445 30.712 32.751 31.496C31.057 32.28 29.398 32.672 27.774 32.672C25.842 32.672 24.099 32.217 22.545 31.307ZM32.688 18.098C32.688 16.418 32.31 14.976 31.554 13.772C30.798 12.568 29.664 11.966 28.152 11.966C24.68 11.966 22.622 14.01 21.978 18.098H32.688ZM38.874 30.74C39.686 30.74 40.267 30.537 40.617 30.131C40.967 29.725 41.177 29.207 41.247 28.577C41.317 27.947 41.352 26.96 41.352 25.616V16.04C41.352 14.864 41.408 13.954 41.52 13.31L38.538 13.436V11.714H39.84C40.904 11.714 41.674 11.623 42.15 11.441C42.626 11.259 43.074 10.972 43.494 10.58H44.712C44.824 11.672 44.894 13.058 44.922 14.738C45.622 13.59 46.623 12.568 47.925 11.672C49.227 10.776 50.578 10.328 51.978 10.328C52.818 10.328 53.518 10.552 54.078 11C54.638 11.448 54.918 12.106 54.918 12.974C54.918 13.422 54.743 13.87 54.393 14.318C54.043 14.766 53.546 14.99 52.902 14.99C52.286 14.99 51.782 14.759 51.39 14.297C50.998 13.835 50.844 13.282 50.928 12.638C49.864 12.61 48.793 13.016 47.715 13.856C46.637 14.696 45.72 15.816 44.964 17.216L45.006 27.548C45.006 28.808 44.95 29.76 44.838 30.404L47.484 30.278V32H38.874V30.74ZM58.164 5.68699C57.716 5.19698 57.492 4.61599 57.492 3.94399C57.492 3.27198 57.723 2.68399 58.185 2.17999C58.647 1.67598 59.172 1.42399 59.76 1.42399C60.404 1.42399 60.943 1.66898 61.377 2.15899C61.811 2.64899 62.028 3.24398 62.028 3.94399C62.028 4.61599 61.797 5.19698 61.335 5.68699C60.873 6.17699 60.334 6.42199 59.718 6.42199C59.13 6.42199 58.612 6.17699 58.164 5.68699ZM55.56 30.74C56.372 30.74 56.953 30.537 57.303 30.131C57.653 29.725 57.863 29.207 57.933 28.577C58.003 27.947 58.038 26.96 58.038 25.616V16.04C58.038 15.228 58.094 14.318 58.206 13.31L55.224 13.478V11.714C56.876 11.714 58.059 11.616 58.773 11.42C59.487 11.224 60.04 10.944 60.432 10.58H61.65V27.548C61.65 28.808 61.594 29.76 61.482 30.404L64.128 30.278V32H55.56V30.74ZM66.072 30.74C66.884 30.74 67.465 30.537 67.815 30.131C68.165 29.725 68.375 29.207 68.445 28.577C68.515 27.947 68.55 26.96 68.55 25.616L68.508 12.806L65.064 12.89V11H68.508V10.118C68.508 6.86997 69.103 4.385 70.293 2.66299C71.483 0.940978 73.408 0.0799866 76.068 0.0799866C77.132 0.0799866 78.147 0.345984 79.113 0.877987C80.079 1.40999 80.562 2.17998 80.562 3.18799C80.562 3.74799 80.401 4.20298 80.079 4.55299C79.757 4.90299 79.316 5.07799 78.756 5.07799C78.196 5.07799 77.769 4.88899 77.475 4.51099C77.181 4.13298 77.034 3.74799 77.034 3.35599C77.034 2.96398 77.104 2.61399 77.244 2.30599C77.048 2.08199 76.782 1.90699 76.446 1.78099C76.11 1.65499 75.774 1.59199 75.438 1.59199C74.234 1.59199 73.38 2.07498 72.876 3.04099C72.372 4.00699 72.12 5.18998 72.12 6.58999V11H77.79V12.638L72.12 12.764L72.162 27.548C72.162 28.808 72.106 29.76 71.994 30.404L74.64 30.278V32H66.072V30.74Z" fill="#1C3ED3"/>
</svg>
